<?xml version="1.0" encoding="UTF-8" standalone="no"?>
<!-- Created with Inkscape (http://www.inkscape.org/) -->

<svg
   version="1.1"
   id="svg1"
   width="1344"
   height="960"
   viewBox="0 0 1344 960"
   sodipodi:docname="TheRichardsonTeam_Logo_VECTOR.ai"
   xmlns:inkscape="http://www.inkscape.org/namespaces/inkscape"
   xmlns:sodipodi="http://sodipodi.sourceforge.net/DTD/sodipodi-0.dtd"
   xmlns="http://www.w3.org/2000/svg"
   xmlns:svg="http://www.w3.org/2000/svg">
  <defs
     id="defs1">
    <clipPath
       clipPathUnits="userSpaceOnUse"
       id="clipPath13">
      <path
         d="M 0,720 H 1008 V 0 H 0 Z"
         transform="translate(-501.97792,-511.97782)"
         id="path13" />
    </clipPath>
    <clipPath
       clipPathUnits="userSpaceOnUse"
       id="clipPath15">
      <path
         d="M 0,720 H 1008 V 0 H 0 Z"
         transform="translate(-526.85662,-511.97782)"
         id="path15" />
    </clipPath>
    <clipPath
       clipPathUnits="userSpaceOnUse"
       id="clipPath17">
      <path
         d="M 0,720 H 1008 V 0 H 0 Z"
         id="path17" />
    </clipPath>
    <clipPath
       clipPathUnits="userSpaceOnUse"
       id="clipPath19">
      <path
         d="M 0,720 H 1008 V 0 H 0 Z"
         id="path19" />
    </clipPath>
    <clipPath
       clipPathUnits="userSpaceOnUse"
       id="clipPath21">
      <path
         d="M 0,720 H 1008 V 0 H 0 Z"
         transform="translate(-101.4502,-345.06151)"
         id="path21" />
    </clipPath>
    <clipPath
       clipPathUnits="userSpaceOnUse"
       id="clipPath23">
      <path
         d="M 0,720 H 1008 V 0 H 0 Z"
         id="path23" />
    </clipPath>
    <clipPath
       clipPathUnits="userSpaceOnUse"
       id="clipPath25">
      <path
         d="M 0,720 H 1008 V 0 H 0 Z"
         transform="translate(-264.6274,-355.69531)"
         id="path25" />
    </clipPath>
    <clipPath
       clipPathUnits="userSpaceOnUse"
       id="clipPath27">
      <path
         d="M 0,720 H 1008 V 0 H 0 Z"
         transform="translate(-307.43071,-391.78861)"
         id="path27" />
    </clipPath>
    <clipPath
       clipPathUnits="userSpaceOnUse"
       id="clipPath29">
      <path
         d="M 0,720 H 1008 V 0 H 0 Z"
         transform="translate(-423.40041,-325.14361)"
         id="path29" />
    </clipPath>
    <clipPath
       clipPathUnits="userSpaceOnUse"
       id="clipPath31">
      <path
         d="M 0,720 H 1008 V 0 H 0 Z"
         transform="translate(-513.26171,-345.06151)"
         id="path31" />
    </clipPath>
    <clipPath
       clipPathUnits="userSpaceOnUse"
       id="clipPath33">
      <path
         d="M 0,720 H 1008 V 0 H 0 Z"
         transform="translate(-606.31151,-300.73141)"
         id="path33" />
    </clipPath>
    <clipPath
       clipPathUnits="userSpaceOnUse"
       id="clipPath35">
      <path
         d="M 0,720 H 1008 V 0 H 0 Z"
         transform="translate(-695.71582,-318.25391)"
         id="path35" />
    </clipPath>
    <clipPath
       clipPathUnits="userSpaceOnUse"
       id="clipPath37">
      <path
         d="M 0,720 H 1008 V 0 H 0 Z"
         transform="translate(-799.08692,-298.6348)"
         id="path37" />
    </clipPath>
    <clipPath
       clipPathUnits="userSpaceOnUse"
       id="clipPath39">
      <path
         d="M 0,720 H 1008 V 0 H 0 Z"
         transform="translate(-881.66215,-391.78861)"
         id="path39" />
    </clipPath>
    <clipPath
       clipPathUnits="userSpaceOnUse"
       id="clipPath41">
      <path
         d="M 0,720 H 1008 V 0 H 0 Z"
         transform="translate(-112.2544,-458.12701)"
         id="path41" />
    </clipPath>
    <clipPath
       clipPathUnits="userSpaceOnUse"
       id="clipPath43">
      <path
         d="M 0,720 H 1008 V 0 H 0 Z"
         transform="translate(-135.26031,-458.12701)"
         id="path43" />
    </clipPath>
    <clipPath
       clipPathUnits="userSpaceOnUse"
       id="clipPath45">
      <path
         d="M 0,720 H 1008 V 0 H 0 Z"
         transform="translate(-222.06351,-458.12701)"
         id="path45" />
    </clipPath>
    <clipPath
       clipPathUnits="userSpaceOnUse"
       id="clipPath47">
      <path
         d="M 0,720 H 1008 V 0 H 0 Z"
         transform="translate(-727.20512,-268.02831)"
         id="path47" />
    </clipPath>
    <clipPath
       clipPathUnits="userSpaceOnUse"
       id="clipPath49">
      <path
         d="M 0,720 H 1008 V 0 H 0 Z"
         transform="translate(-785.14554,-268.02831)"
         id="path49" />
    </clipPath>
    <clipPath
       clipPathUnits="userSpaceOnUse"
       id="clipPath51">
      <path
         d="M 0,720 H 1008 V 0 H 0 Z"
         transform="translate(-827.2969,-236.6572)"
         id="path51" />
    </clipPath>
    <clipPath
       clipPathUnits="userSpaceOnUse"
       id="clipPath53">
      <path
         d="M 0,720 H 1008 V 0 H 0 Z"
         transform="translate(-880.95212,-268.02831)"
         id="path53" />
    </clipPath>
    <clipPath
       clipPathUnits="userSpaceOnUse"
       id="clipPath55">
      <path
         d="M 0,720 H 1008 V 0 H 0 Z"
         transform="translate(-233.26561,-178.8262)"
         id="path55" />
    </clipPath>
    <clipPath
       clipPathUnits="userSpaceOnUse"
       id="clipPath57">
      <path
         d="M 0,720 H 1008 V 0 H 0 Z"
         transform="translate(-275.57421,-192.7773)"
         id="path57" />
    </clipPath>
    <clipPath
       clipPathUnits="userSpaceOnUse"
       id="clipPath59">
      <path
         d="M 0,720 H 1008 V 0 H 0 Z"
         transform="translate(-355.63571,-175.4658)"
         id="path59" />
    </clipPath>
    <clipPath
       clipPathUnits="userSpaceOnUse"
       id="clipPath61">
      <path
         d="M 0,720 H 1008 V 0 H 0 Z"
         transform="translate(-392.89211,-192.7773)"
         id="path61" />
    </clipPath>
    <clipPath
       clipPathUnits="userSpaceOnUse"
       id="clipPath63">
      <path
         d="M 0,720 H 1008 V 0 H 0 Z"
         transform="translate(-480.82521,-192.7773)"
         id="path63" />
    </clipPath>
    <clipPath
       clipPathUnits="userSpaceOnUse"
       id="clipPath65">
      <path
         d="M 0,720 H 1008 V 0 H 0 Z"
         transform="translate(-533.72662,-169.4092)"
         id="path65" />
    </clipPath>
    <clipPath
       clipPathUnits="userSpaceOnUse"
       id="clipPath67">
      <path
         d="M 0,720 H 1008 V 0 H 0 Z"
         transform="translate(-599.23051,-189.92481)"
         id="path67" />
    </clipPath>
    <clipPath
       clipPathUnits="userSpaceOnUse"
       id="clipPath69">
      <path
         d="M 0,720 H 1008 V 0 H 0 Z"
         transform="translate(-663.16112,-175.4658)"
         id="path69" />
    </clipPath>
    <clipPath
       clipPathUnits="userSpaceOnUse"
       id="clipPath71">
      <path
         d="M 0,720 H 1008 V 0 H 0 Z"
         transform="translate(-705.57812,-189.92481)"
         id="path71" />
    </clipPath>
    <clipPath
       clipPathUnits="userSpaceOnUse"
       id="clipPath73">
      <path
         d="M 0,720 H 1008 V 0 H 0 Z"
         transform="translate(-749.73342,-192.7773)"
         id="path73" />
    </clipPath>
  </defs>
  <sodipodi:namedview
     id="namedview1"
     pagecolor="#ffffff"
     bordercolor="#000000"
     borderopacity="0.25"
     inkscape:showpageshadow="2"
     inkscape:pageopacity="0.0"
     inkscape:pagecheckerboard="0"
     inkscape:deskcolor="#d1d1d1">
    <inkscape:page
       x="0"
       y="0"
       inkscape:label="1"
       id="page1"
       width="1344"
       height="960"
       margin="220.04266 100.784 172.74533 105.78493"
       bleed="0" />
  </sodipodi:namedview>
  <g
     id="layer-MC0"
     inkscape:groupmode="layer"
     inkscape:label="proof_hires_120424_482912 Image">
    <path
       id="path1"
       d="M 0,0 H 16.745 L 92.697,55.858 130.853,27.929 97.123,0 h 26.553 L 223.085,81.215 323.184,0 h 25.597 L 315.051,27.869 354.163,55.977 429.038,0 h 17.344 l -92.937,77.746 -52.03,-39.351 -78.33,64.11 -77.76,-63.871 -52.389,39.232 z"
       style="fill:#1e437e;fill-opacity:1;fill-rule:nonzero;stroke:none"
       transform="matrix(1.3333333,0,0,-1.3333333,375.9688,309.41813)" />
    <path
       id="path2"
       d="m 640.565,503.565 h -11.243 v 8.851 h 11.243 z"
       style="fill:#1e437e;fill-opacity:1;fill-rule:nonzero;stroke:none"
       transform="matrix(1.3333333,0,0,-1.3333333,0,960)" />
    <path
       id="path3"
       d="m 654.878,503.565 h -11.243 v 8.851 h 11.243 z"
       style="fill:#1e437e;fill-opacity:1;fill-rule:nonzero;stroke:none"
       transform="matrix(1.3333333,0,0,-1.3333333,0,960)" />
    <path
       id="path4"
       d="m 640.565,493 h -11.243 v 8.851 h 11.243 z"
       style="fill:#1e437e;fill-opacity:1;fill-rule:nonzero;stroke:none"
       transform="matrix(1.3333333,0,0,-1.3333333,0,960)" />
    <path
       id="path5"
       d="m 654.878,493 h -11.243 v 8.851 h 11.243 z"
       style="fill:#1e437e;fill-opacity:1;fill-rule:nonzero;stroke:none"
       transform="matrix(1.3333333,0,0,-1.3333333,0,960)" />
    <path
       id="path6"
       d="m 367.059,503.565 h -11.243 v 8.851 h 11.243 z"
       style="fill:#1e437e;fill-opacity:1;fill-rule:nonzero;stroke:none"
       transform="matrix(1.3333333,0,0,-1.3333333,0,960)" />
    <path
       id="path7"
       d="m 381.372,503.565 h -11.243 v 8.851 h 11.243 z"
       style="fill:#1e437e;fill-opacity:1;fill-rule:nonzero;stroke:none"
       transform="matrix(1.3333333,0,0,-1.3333333,0,960)" />
    <path
       id="path8"
       d="m 367.059,493 h -11.243 v 8.851 h 11.243 z"
       style="fill:#1e437e;fill-opacity:1;fill-rule:nonzero;stroke:none"
       transform="matrix(1.3333333,0,0,-1.3333333,0,960)" />
    <path
       id="path9"
       d="m 381.372,493 h -11.243 v 8.851 h 11.243 z"
       style="fill:#1e437e;fill-opacity:1;fill-rule:nonzero;stroke:none"
       transform="matrix(1.3333333,0,0,-1.3333333,0,960)" />
    <path
       id="path10"
       d="m 501.978,489.571 h -19.377 v 18.42 h 19.377 z"
       style="fill:#1e437e;fill-opacity:1;fill-rule:nonzero;stroke:none"
       transform="matrix(1.3333333,0,0,-1.3333333,0,960)" />
    <path
       id="path11"
       d="M 526.857,489.571 H 507.48 v 18.42 h 19.377 z"
       style="fill:#1e437e;fill-opacity:1;fill-rule:nonzero;stroke:none"
       transform="matrix(1.3333333,0,0,-1.3333333,0,960)" />
    <path
       id="path12"
       d="m 0,0 h -19.377 v 0.399 c 0,10.701 8.676,19.376 19.377,19.376 v 0 z"
       style="fill:#1e437e;fill-opacity:1;fill-rule:nonzero;stroke:none"
       transform="matrix(1.3333333,0,0,-1.3333333,669.30387,277.36293)"
       clip-path="url(#clipPath13)" />
    <path
       id="path14"
       d="m 0,0 h -19.377 v 19.775 0 C -8.675,19.775 0,11.1 0,0.399 Z"
       style="fill:#1e437e;fill-opacity:1;fill-rule:nonzero;stroke:none"
       transform="matrix(1.3333333,0,0,-1.3333333,702.47547,277.36293)"
       clip-path="url(#clipPath15)" />
    <path
       id="path16"
       d="M 664.487,236.857 H 79.339 v 20.214 h 585.148 z"
       style="fill:#e53222;fill-opacity:1;fill-rule:nonzero;stroke:none"
       transform="matrix(1.3333333,0,0,-1.3333333,0,960)"
       clip-path="url(#clipPath17)" />
    <path
       id="path18"
       d="M 932.412,424.524 H 257.118 v 20.214 h 675.294 z"
       style="fill:#e53222;fill-opacity:1;fill-rule:nonzero;stroke:none"
       transform="matrix(1.3333333,0,0,-1.3333333,0,960)"
       clip-path="url(#clipPath19)" />
    <path
       id="path20"
       d="m 0,0 h 9.107 c 10.475,0 16.394,4.493 16.394,16.025 0,9.885 -5.313,14.827 -15.179,14.827 L 0,30.852 Z m -21.858,46.727 h 40.377 c 17.912,0 28.841,-9.285 28.841,-27.557 0,-14.228 -5.768,-23.813 -18.064,-26.358 v -0.299 c 14.876,-1.948 17.153,-10.035 17.456,-32.65 0.152,-11.232 0.76,-17.073 4.858,-19.17 v -0.898 H 27.93 c -2.125,2.995 -2.58,7.039 -2.732,11.232 l -0.607,20.518 c -0.304,8.387 -4.099,13.479 -12.903,13.479 H 0 v -45.229 h -21.858 z"
       style="fill:#1e437e;fill-opacity:1;fill-rule:nonzero;stroke:none"
       transform="matrix(1.3333333,0,0,-1.3333333,135.26693,499.918)"
       clip-path="url(#clipPath21)" />
    <path
       id="path22"
       d="m 172.641,391.789 h 21.858 V 284.857 h -21.858 z"
       style="fill:#1e437e;fill-opacity:1;fill-rule:nonzero;stroke:none"
       transform="matrix(1.3333333,0,0,-1.3333333,0,960)"
       clip-path="url(#clipPath23)" />
    <path
       id="path24"
       d="m 0,0 c 0,15.576 -3.188,22.315 -13.055,22.315 -11.08,0 -13.661,-10.933 -13.661,-41.185 0,-32.35 4.554,-38.191 13.965,-38.191 7.894,0 13.662,4.044 13.662,27.108 h 21.858 c 0,-23.064 -5.768,-42.983 -34.457,-42.983 -32.788,0 -36.886,23.064 -36.886,55.563 0,32.499 4.098,55.563 36.886,55.563 31.27,0 33.546,-22.614 33.546,-38.19 z"
       style="fill:#1e437e;fill-opacity:1;fill-rule:nonzero;stroke:none"
       transform="matrix(1.3333333,0,0,-1.3333333,352.83653,485.7396)"
       clip-path="url(#clipPath25)" />
    <path
       id="path26"
       d="M 0,0 H 21.858 V -40.886 H 47.36 V 0 H 69.218 V -106.932 H 47.36 v 47.475 H 21.858 v -47.475 H 0 Z"
       style="fill:#1e437e;fill-opacity:1;fill-rule:nonzero;stroke:none"
       transform="matrix(1.3333333,0,0,-1.3333333,409.9076,437.6152)"
       clip-path="url(#clipPath27)" />
    <path
       id="path28"
       d="M 0,0 H 21.251 L 10.777,48.074 H 10.474 Z M -2.884,66.645 H 24.135 L 52.824,-40.287 H 30.055 l -5.009,22.614 H -3.795 l -5.009,-22.614 h -22.769 z"
       style="fill:#1e437e;fill-opacity:1;fill-rule:nonzero;stroke:none"
       transform="matrix(1.3333333,0,0,-1.3333333,564.53387,526.4752)"
       clip-path="url(#clipPath29)" />
    <path
       id="path30"
       d="m 0,0 h 9.108 c 10.474,0 16.394,4.493 16.394,16.025 0,9.885 -5.313,14.827 -15.18,14.827 L 0,30.852 Z M -21.858,46.727 H 18.52 c 17.911,0 28.84,-9.285 28.84,-27.557 0,-14.228 -5.768,-23.813 -18.063,-26.358 v -0.299 c 14.876,-1.948 17.152,-10.035 17.456,-32.65 0.152,-11.232 0.759,-17.073 4.857,-19.17 v -0.898 H 27.931 c -2.125,2.995 -2.581,7.039 -2.733,11.232 l -0.607,20.518 c -0.304,8.387 -4.099,13.479 -12.903,13.479 H 0 v -45.229 h -21.858 z"
       style="fill:#1e437e;fill-opacity:1;fill-rule:nonzero;stroke:none"
       transform="matrix(1.3333333,0,0,-1.3333333,684.34893,499.918)"
       clip-path="url(#clipPath31)" />
    <path
       id="path32"
       d="m 0,0 h 9.715 c 15.18,0 18.215,9.436 18.215,38.489 0,24.262 -1.973,36.693 -18.67,36.693 l -9.26,0 z m -21.858,91.057 h 35.823 c 30.359,0 35.823,-20.517 35.823,-51.968 0,-37.891 -8.196,-54.964 -37.189,-54.964 h -34.457 z"
       style="fill:#1e437e;fill-opacity:1;fill-rule:nonzero;stroke:none"
       transform="matrix(1.3333333,0,0,-1.3333333,808.41533,559.0248)"
       clip-path="url(#clipPath33)" />
    <path
       id="path34"
       d="m 0,0 v -3.145 c 0,-10.034 2.884,-16.474 14.42,-16.474 6.679,0 13.055,4.193 13.055,13.18 0,9.734 -5.01,13.329 -19.43,18.271 -19.43,6.589 -28.386,14.526 -28.386,32.349 0,20.817 12.903,31.45 33.547,31.45 19.43,0 33.546,-8.236 33.546,-28.755 V 43.881 H 25.805 c 0,10.035 -3.492,15.875 -11.84,15.875 -9.867,0 -12.447,-6.14 -12.447,-12.43 0,-6.59 1.973,-10.634 11.232,-14.527 L 29.6,25.61 c 16.393,-7.039 20.643,-15.276 20.643,-28.305 0,-22.616 -13.965,-32.799 -37.644,-32.799 -24.743,0 -34.457,11.382 -34.457,31.151 l -0,4.343 z"
       style="fill:#1e437e;fill-opacity:1;fill-rule:nonzero;stroke:none"
       transform="matrix(1.3333333,0,0,-1.3333333,927.62107,535.66147)"
       clip-path="url(#clipPath35)" />
    <path
       id="path36"
       d="M 0,0 C 12.902,0 15.027,10.933 15.027,39.688 15.027,68.293 12.902,79.375 0,79.375 -12.903,79.375 -15.028,68.293 -15.028,39.688 -15.028,10.933 -12.903,0 0,0 m 0,95.25 c 32.787,0 36.886,-23.063 36.886,-55.562 0,-32.5 -4.099,-55.563 -36.886,-55.563 -32.788,0 -36.887,23.063 -36.887,55.563 0,32.499 4.099,55.562 36.887,55.562"
       style="fill:#1e437e;fill-opacity:1;fill-rule:nonzero;stroke:none"
       transform="matrix(1.3333333,0,0,-1.3333333,1065.4492,561.82027)"
       clip-path="url(#clipPath37)" />
    <path
       id="path38"
       d="m 0,0 26.412,-73.235 h 0.303 V 0 H 46.752 V -106.932 H 21.857 l -26.714,74.883 h -0.304 v -74.883 H -25.198 V 0 Z"
       style="fill:#1e437e;fill-opacity:1;fill-rule:nonzero;stroke:none"
       transform="matrix(1.3333333,0,0,-1.3333333,1175.5495,437.6152)"
       clip-path="url(#clipPath39)" />
    <path
       id="path40"
       d="M 0,0 V -8.318 H -11.145 V -50.334 H -21.432 V -8.318 H -32.577 V 0 Z"
       style="fill:#1e437e;fill-opacity:1;fill-rule:nonzero;stroke:none"
       transform="matrix(1.3333333,0,0,-1.3333333,149.67253,349.164)"
       clip-path="url(#clipPath41)" />
    <path
       id="path42"
       d="M 0,0 H 10.288 V -19.246 H 22.29 V 0 H 32.577 V -50.334 H 22.29 v 22.347 H 10.288 V -50.334 H 0 Z"
       style="fill:#1e437e;fill-opacity:1;fill-rule:nonzero;stroke:none"
       transform="matrix(1.3333333,0,0,-1.3333333,180.34707,349.164)"
       clip-path="url(#clipPath43)" />
    <path
       id="path44"
       d="M 0,0 V -8.318 H -18.217 V -20.162 H -1.071 V -28.48 H -18.217 V -42.016 H 0.714 v -8.318 H -28.505 V 0 Z"
       style="fill:#1e437e;fill-opacity:1;fill-rule:nonzero;stroke:none"
       transform="matrix(1.3333333,0,0,-1.3333333,296.08467,349.164)"
       clip-path="url(#clipPath45)" />
    <path
       id="path46"
       d="M 0,0 V -8.318 H -11.145 V -50.334 H -21.433 V -8.318 H -32.577 V 0 Z"
       style="fill:#1e437e;fill-opacity:1;fill-rule:nonzero;stroke:none"
       transform="matrix(1.3333333,0,0,-1.3333333,969.6068,602.62893)"
       clip-path="url(#clipPath47)" />
    <path
       id="path48"
       d="M 0,0 V -8.318 H -18.218 V -20.162 H -1.071 V -28.48 H -18.218 V -42.016 H 0.715 v -8.318 h -29.22 V 0 Z"
       style="fill:#1e437e;fill-opacity:1;fill-rule:nonzero;stroke:none"
       transform="matrix(1.3333333,0,0,-1.3333333,1046.8607,602.62893)"
       clip-path="url(#clipPath49)" />
    <path
       id="path50"
       d="M 0,0 H 10.002 L 5.073,22.63 H 4.93 Z M -1.356,31.371 H 11.359 L 24.862,-18.963 H 14.146 L 11.788,-8.318 H -1.785 l -2.359,-10.645 h -10.715 z"
       style="fill:#1e437e;fill-opacity:1;fill-rule:nonzero;stroke:none"
       transform="matrix(1.3333333,0,0,-1.3333333,1103.0625,644.45707)"
       clip-path="url(#clipPath51)" />
    <path
       id="path52"
       d="m 0,0 h 15.289 l 7.287,-35.53 h 0.143 L 30.077,0 h 15.217 v -50.334 h -9.43 v 40.183 H 35.721 L 26.648,-50.334 H 18.646 L 9.573,-10.151 H 9.431 V -50.334 H 0 Z"
       style="fill:#1e437e;fill-opacity:1;fill-rule:nonzero;stroke:none"
       transform="matrix(1.3333333,0,0,-1.3333333,1174.6028,602.62893)"
       clip-path="url(#clipPath53)" />
    <path
       id="path54"
       d="m 0,0 c 5.704,0 9.778,2.11 9.778,5.628 v 0.078 c 0,3.36 -3.585,5.393 -9.723,5.393 H -11.679 V 0 Z M -15.97,13.951 H 0.38 c 4.672,0 8.42,-1.015 10.81,-2.735 1.847,-1.329 2.934,-3.243 2.934,-5.393 V 5.745 c 0,-4.533 -4.346,-7.19 -10.321,-7.973 L 15.481,-13.403 H 10.212 L -0.814,-2.774 h -10.865 v -10.629 h -4.291 z"
       style="fill:#1e437e;fill-opacity:1;fill-rule:nonzero;stroke:none"
       transform="matrix(1.3333333,0,0,-1.3333333,311.0208,721.56507)"
       clip-path="url(#clipPath55)" />
    <path
       id="path56"
       d="M 0,0 H 27.486 V -2.813 H 4.291 v -9.34 h 20.751 v -2.814 H 4.291 v -9.574 h 23.467 v -2.813 H 0 Z"
       style="fill:#1e437e;fill-opacity:1;fill-rule:nonzero;stroke:none"
       transform="matrix(1.3333333,0,0,-1.3333333,367.43227,702.9636)"
       clip-path="url(#clipPath57)" />
    <path
       id="path58"
       d="M 0,0 -8.637,13.912 -17.328,0 Z m -10.593,17.507 h 4.02 l 17.329,-27.55 H 6.139 l -4.455,7.23 h -20.696 l -4.509,-7.23 h -4.4 z"
       style="fill:#1e437e;fill-opacity:1;fill-rule:nonzero;stroke:none"
       transform="matrix(1.3333333,0,0,-1.3333333,474.18093,726.0456)"
       clip-path="url(#clipPath59)" />
    <path
       id="path60"
       d="m 0,0 h 4.292 v -24.502 h 21.402 v -2.852 H 0 Z"
       style="fill:#1e437e;fill-opacity:1;fill-rule:nonzero;stroke:none"
       transform="matrix(1.3333333,0,0,-1.3333333,523.85613,702.9636)"
       clip-path="url(#clipPath61)" />
    <path
       id="path62"
       d="M 0,0 H 27.486 V -2.813 H 4.291 v -9.34 h 20.751 v -2.814 H 4.291 v -9.574 h 23.467 v -2.813 H 0 Z"
       style="fill:#1e437e;fill-opacity:1;fill-rule:nonzero;stroke:none"
       transform="matrix(1.3333333,0,0,-1.3333333,641.10027,702.9636)"
       clip-path="url(#clipPath63)" />
    <path
       id="path64"
       d="m 0,0 2.662,2.267 c 3.965,-2.58 7.768,-3.87 13.037,-3.87 5.106,0 8.474,1.955 8.474,4.651 v 0.078 c 0,2.54 -1.902,3.985 -9.886,5.197 -8.746,1.367 -12.766,3.4 -12.766,7.894 v 0.078 c 0,4.299 5.269,7.464 12.494,7.464 5.541,0 9.506,-1.133 13.363,-3.361 l -2.499,-2.383 c -3.53,2.071 -7.062,2.969 -10.973,2.969 -4.943,0 -8.094,-1.954 -8.094,-4.416 V 16.49 c 0,-2.579 1.956,-4.024 10.322,-5.314 C 24.607,9.848 28.519,7.62 28.519,3.438 V 3.36 c 0,-4.689 -5.432,-7.737 -12.983,-7.737 C 9.506,-4.377 4.563,-2.932 0,0"
       style="fill:#1e437e;fill-opacity:1;fill-rule:nonzero;stroke:none"
       transform="matrix(1.3333333,0,0,-1.3333333,711.63547,734.12107)"
       clip-path="url(#clipPath65)" />
    <path
       id="path66"
       d="M 0,0 H -12.765 V 2.853 H 17.111 V 0 H 4.346 V -24.502 H 0 Z"
       style="fill:#1e437e;fill-opacity:1;fill-rule:nonzero;stroke:none"
       transform="matrix(1.3333333,0,0,-1.3333333,798.974,706.76693)"
       clip-path="url(#clipPath67)" />
    <path
       id="path68"
       d="M 0,0 -8.638,13.912 -17.329,0 Z m -10.593,17.507 h 4.02 l 17.328,-27.55 H 6.138 l -4.454,7.23 h -20.697 l -4.508,-7.23 h -4.401 z"
       style="fill:#1e437e;fill-opacity:1;fill-rule:nonzero;stroke:none"
       transform="matrix(1.3333333,0,0,-1.3333333,884.2148,726.0456)"
       clip-path="url(#clipPath69)" />
    <path
       id="path70"
       d="M 0,0 H -12.766 V 2.853 H 17.11 V 0 H 4.346 V -24.502 H 0 Z"
       style="fill:#1e437e;fill-opacity:1;fill-rule:nonzero;stroke:none"
       transform="matrix(1.3333333,0,0,-1.3333333,940.7708,706.76693)"
       clip-path="url(#clipPath71)" />
    <path
       id="path72"
       d="M 0,0 H 27.486 V -2.813 H 4.291 v -9.34 h 20.751 v -2.814 H 4.291 v -9.574 h 23.467 v -2.813 H 0 Z"
       style="fill:#1e437e;fill-opacity:1;fill-rule:nonzero;stroke:none"
       transform="matrix(1.3333333,0,0,-1.3333333,999.64453,702.9636)"
       clip-path="url(#clipPath73)" />
  </g>
</svg>
